<svg xmlns="http://www.w3.org/2000/svg" xmlns:xlink="http://www.w3.org/1999/xlink" width="100" zoomAndPan="magnify" viewBox="0 0 75 74.999997" height="100" preserveAspectRatio="xMidYMid meet" version="1.0"><defs><g/></defs><g fill="#06b6d4" fill-opacity="1"><g transform="translate(2.523599, 56.084693)"><g><path d="M 30.125 0 L 26.75 -8.828125 L 11.703125 -8.828125 L 8.484375 0 L 0.109375 0 L 15.28125 -38.984375 L 23.078125 -38.984375 L 38.71875 0 Z M 17.3125 -24.21875 L 14.09375 -15.421875 L 24.21875 -15.421875 L 20.953125 -24.21875 C 20.523438 -25.351562 20.144531 -26.515625 19.8125 -27.703125 C 19.488281 -28.890625 19.273438 -29.859375 19.171875 -30.609375 L 18.953125 -30.609375 C 18.640625 -28.472656 18.09375 -26.34375 17.3125 -24.21875 Z M 17.3125 -24.21875 "/></g></g></g><g fill="#06b6d4" fill-opacity="1"><g transform="translate(41.326187, 56.084693)"><g><path d="M 4.09375 0 L 4.09375 -38.984375 L 11.9375 -38.984375 L 11.9375 0 Z M 4.09375 0 "/></g></g></g><g fill="#06b6d4" fill-opacity="1"><g transform="translate(57.352199, 56.084693)"><g><path d="M 3.71875 0 L 3.71875 -7.65625 L 11.375 -7.65625 L 11.375 0 Z M 3.71875 0 "/></g></g></g></svg>